<svg width="28" height="28" viewBox="0 0 28 28" fill="none" xmlns="http://www.w3.org/2000/svg">
<mask id="mask0_59_661" style="mask-type:alpha" maskUnits="userSpaceOnUse" x="0" y="0" width="28" height="28">
<rect width="28" height="28" fill="#242A50"/>
</mask>
<g mask="url(#mask0_59_661)">
<circle cx="14" cy="14" r="10" stroke="#51BC40" stroke-width="2"/>
</g>
<path d="M14.7686 15.9443H13.1279L12.8955 9.04688H15.001L14.7686 15.9443ZM13.9482 17.0244C14.2809 17.0244 14.5475 17.1224 14.748 17.3184C14.9531 17.5143 15.0557 17.765 15.0557 18.0703C15.0557 18.3711 14.9531 18.6195 14.748 18.8154C14.5475 19.0114 14.2809 19.1094 13.9482 19.1094C13.6201 19.1094 13.3535 19.0114 13.1484 18.8154C12.9479 18.6195 12.8477 18.3711 12.8477 18.0703C12.8477 17.7695 12.9479 17.5212 13.1484 17.3252C13.3535 17.1247 13.6201 17.0244 13.9482 17.0244Z" fill="#51BC40"/>
</svg>
