<svg width="45" height="45" viewBox="0 0 45 45" fill="none" xmlns="http://www.w3.org/2000/svg">
<mask id="mask0_204:719" style="mask-type:alpha" maskUnits="userSpaceOnUse" x="0" y="0" width="45" height="45">
<rect width="45" height="45" fill="#3C64D8"/>
</mask>
<g mask="url(#mask0_204:719)">
<path d="M34.7678 26.9134C34.7678 26.8301 34.6683 26.8301 34.6683 26.7468C34.2704 26.0803 33.3752 25.2473 32.1816 24.3309C31.5848 23.9143 31.2864 23.5811 31.0874 23.4145C30.789 23.0812 30.789 22.8313 30.8885 22.4981C30.988 22.2482 31.3858 21.8316 32.0821 21.0818C32.48 20.6653 32.6789 20.4154 32.9773 20.1654C34.4694 18.4993 35.1656 17.4162 34.9667 16.9164L34.8673 16.8331C34.7678 16.7498 34.6683 16.6665 34.4694 16.6665C34.2704 16.5832 33.972 16.5832 33.6736 16.6665H29.8938C29.7943 16.6665 29.7943 16.6665 29.5954 16.6665C29.4959 16.6665 29.3965 16.6665 29.3965 16.6665H29.297H29.1975L29.098 16.7498C28.9986 16.8331 28.9986 16.8331 28.9986 16.9164C28.6007 17.8328 28.1034 18.5826 27.606 19.4156C27.3076 19.8322 27.0092 20.2487 26.7108 20.582C26.4124 20.9152 26.2134 21.1651 26.0145 21.3317C25.8156 21.4984 25.6166 21.5817 25.5172 21.7483C25.4177 21.8316 25.2188 21.9149 25.2188 21.8316C25.1193 21.8316 25.0198 21.8316 25.0198 21.7483C24.9203 21.665 24.8209 21.5817 24.7214 21.4984C24.6219 21.4151 24.6219 21.2484 24.5225 21.0818C24.5225 20.9152 24.5225 20.7486 24.5225 20.6653C24.5225 20.582 24.5225 20.3321 24.5225 20.1654C24.5225 19.9155 24.5225 19.7489 24.5225 19.6656C24.5225 19.4157 24.5225 19.0824 24.5225 18.7492C24.5225 18.416 24.5225 18.166 24.5225 17.9994C24.5225 17.8328 24.5225 17.5829 24.5225 17.4162C24.5225 17.1663 24.5225 16.9997 24.5225 16.9164C24.5225 16.8331 24.423 16.6665 24.423 16.5832C24.3235 16.4998 24.2241 16.4165 24.1246 16.3332C24.0251 16.2499 23.8262 16.2499 23.7267 16.1666C23.2294 16.0833 22.6326 16 21.9363 16C20.3448 16 19.2506 16.0833 18.8527 16.2499C18.6538 16.3332 18.4549 16.4165 18.3554 16.5832C18.1565 16.7498 18.1565 16.8331 18.2559 16.8331C18.7533 16.9164 19.1512 17.083 19.3501 17.3329L19.4496 17.4996C19.549 17.5829 19.549 17.7495 19.6485 17.9994C19.748 18.2493 19.748 18.4993 19.748 18.8325C19.748 19.3323 19.748 19.8322 19.748 20.1654C19.748 20.582 19.6485 20.8319 19.6485 21.0818C19.6485 21.3317 19.549 21.4984 19.4496 21.5817C19.3501 21.7483 19.3501 21.8316 19.2506 21.8316C19.2506 21.8316 19.2506 21.9149 19.1511 21.9149C19.0517 21.9149 18.9522 21.9982 18.7533 21.9982C18.6538 21.9982 18.4549 21.9149 18.3554 21.8316C18.1565 21.7483 17.9575 21.5817 17.8581 21.4151C17.6591 21.2484 17.4602 20.9985 17.2612 20.6653C17.0623 20.332 16.7639 19.9988 16.5649 19.499L16.366 19.1657C16.2666 18.9991 16.0676 18.6659 15.8687 18.2493C15.6697 17.8328 15.4708 17.4996 15.2719 17.083C15.1724 16.9164 15.0729 16.8331 14.9735 16.7498H14.874C14.874 16.7498 14.7745 16.6665 14.675 16.6665C14.5756 16.6665 14.4761 16.5832 14.3766 16.5832H10.7958C10.3979 16.5832 10.1989 16.6665 10.0995 16.7498L10 16.8331C10 16.8331 10 16.9164 10 16.9997C10 17.083 10 17.1663 10.0995 17.3329C10.5968 18.3326 11.1936 19.3323 11.7904 20.332C12.3873 21.2484 12.9841 22.0815 13.382 22.6647C13.8793 23.2479 14.2772 23.831 14.7745 24.3309C15.2719 24.8307 15.5703 25.164 15.6697 25.3306C15.8687 25.4972 15.9681 25.5805 16.0676 25.6638L16.366 25.9137C16.565 26.0803 16.8634 26.3303 17.2612 26.5802C17.6591 26.8301 18.1565 27.08 18.6538 27.33C19.1511 27.5799 19.748 27.7465 20.3448 27.9131C21.0411 28.0798 21.6379 28.1631 22.2347 28.0798H23.7267C24.0251 28.0798 24.2241 27.9964 24.423 27.8298L24.5225 27.7465C24.5225 27.6632 24.6219 27.6632 24.6219 27.5799C24.6219 27.4966 24.6219 27.4133 24.6219 27.2467C24.6219 26.9134 24.6219 26.6635 24.7214 26.4136C24.8209 26.1637 24.8209 25.997 24.9204 25.8304C25.0198 25.6638 25.1193 25.5805 25.2188 25.4972C25.3182 25.4139 25.4177 25.3306 25.4177 25.3306H25.5172C25.7161 25.2473 26.0145 25.3306 26.2134 25.4972C26.5119 25.6638 26.8102 25.9137 27.0092 26.1637C27.2081 26.4136 27.5066 26.6635 27.9044 26.9967C28.3023 27.33 28.6007 27.5799 28.7996 27.6632L29.098 27.8298C29.297 27.9131 29.4959 27.9964 29.7943 28.0798C30.0927 28.1631 30.2917 28.1631 30.4906 28.1631L33.8726 28.0798C34.171 28.0798 34.4694 27.9965 34.6683 27.9131C34.8672 27.8298 34.9667 27.7465 34.9667 27.5799C34.9667 27.4966 34.9667 27.33 34.9667 27.2467C34.7678 27.0801 34.7678 26.9967 34.7678 26.9134Z" fill="white"/>
</g>
</svg>
